4D546864000000060001000203C04D54726B0000005600FF58040402180800FF5902FE0100FF0307556E726176656C00FF0113417272616E67656420627920416E696D656E7A00FF020C436F7079726967687420A9209A20FF510306D5119EDD60FF58040602480801FF2F004D54726B000071989A20B0000000B0200000C00000B0790000B0400000B05B3000B00A3300B0076400905E3F00B0790000B0400000B05B3000B00A3300B0076400FF03074B6C61766965728360805E000090604E00904F3F874080600000905E468740805E0000905D4B8360805D0000905B458360804F00009052508360805B0000906059836080520000904B3F836080600000905E4B8740805E0000905D458740805D0000905B488360804B0000904F508360805B0000905B4B8360805B000090594500804F0000904D438B208059000090574783608057000090574D8550805700009059528170804D000090514F836080590000905648836080510000904F4C964080560000804F008360904A44009056448360804A000080560000904A4B0090524B0090564B00903341836080330000903A508360804A00008052000080560000904A4E0090564E00803A000090435F8360804A000080560000904A4D0090524D0090564D0080430000903344836080330000903A568360804A000080520000805600009056620090626200803A00009041598360805600008062000090564F00905E4F0090624F0080410000904654836080460000904A588360804A000090374183609054470080370000903E5B83608054000090564E00803E000090465F8360805600008046000090374883609054420080370000903E5783608054000090565400803E000090465C836080560000805E0000806200008056000080460000903747836090524600905E460080370000903E5C836080520000805E00009051490090544900905D4900803E0000903542836080350000903C5883608051000080540000805D000090514B00905D4B00803C0000904560836080510000805D000090514C0090544C00905D4C0080450000903545836080350000903C5983608051000080540000805D000090525000905E5000803C0000904156836080520000805E000090524F00905E4F008041000090465783608046000090485583608048000090374283609051440080370000903E5883608051000090525300803E000090435B8360805200008043000090374483609051450080370000903E5683608051000090524F00803E0000904354836080520000805E000080520000804300009037448360905E470080370000903E558360805E000090605300803E000090334583609054450080330000903A5183608060000080540000905E460090564F00803A000090436083608056000090524500804300009033428360805E000080520000905D4A009051480080330000903A4C8360805D000080510000905B480090524E00803A000090435E836080520000904F4300804300009033418360805B00009060570080330000903A4F8360804F000090545300803A000090374B83608060000080540000905E4E009056510080370000903E5983608056000090524700803E000090465C8360805E000080520000905D4C00905147008046000090374383608051000090524F0080370000903E5B8360805D000080520000905B4500904F4500803E000090465C8360804600009037428360805B0000804F0000905B4D0080370000903E5D8360805B00009059480090513E00803E000090354683608051000090524A0080350000903C57836080520000904D4600803C000090455D836080590000804D00009057460080450000903547836080570000905749009051450080350000903C5A8360803C000090455D81708057000080510000905951009052528170804500009035448360805900008052000090564500904D420080350000903C558360804D0000803C000090374B83609051450080370000903E5983608051000090524F00803E00009046618360805200008046000090374383609051450080370000903E5783608051000090524900803E000090465E83608056000080520000804600009037448360904A45009056450080370000903E588360804A000080560000904A46009052460090564600803E0000903347836080330000903A4F8360804A00008052000080560000904A500090565000803A000090435C8360804A000080560000904A4F0090524F0090564F0080430000903341836080330000903A518360804A000080520000805600009056610090626100803A000090435E8360805600008062000090564F00905E4F0090624F0080430000903342836080330000903A538360904D4200803A00009037498360804D00009054570080370000903E5A83608054000090564E00803E0000904659836080560000904D3A00804600009037458360804D00009054540080370000903E5983608054000090565500803E000090465D836080560000805E00008062000080560000904D3E00804600009037468360804D000090524100905E410080370000903E59836080520000805E00009051490090544900905D4900803E0000903545836080350000903C5783608051000080540000805D000090514C00905D4C00803C000090455C836080510000805D000090514E0090544E00905D4E0080450000903543836080350000903C5B83608051000080540000805D000090525300905E5300803C0000904560836080520000805E000090524E00905E4E0080450000903546836080350000903551836080520000805E0000903E3700904337008035000090374E81708037000090374B8170803700009037508170803E000080430000903E470090434700803700817090374781708037000090374D8170803E000080430000903E4F0090434F0080370081709037428170803E000080430000903E4C0090434C00803700817090374881708037000090374B8170803E000080430000903E4B0090434B008037008170803E000080430000903E4E0090434E817090374181708037000090374D836090566200904665817080560000904A3E008046000090434B8170804A0000904F5700804300009045568170804F0000905459008045000090464D817080540000904A3D008046000090434A8170804A0000904F5700804300009045548170804F00009052530080450000904652817080520000904A4100804600009043488170804A00009056620080430000904656817080560000904A3900804600009043478170804A0000904F57008043000090454B8170804F00009054590080450000904656817080540000904A3B00804600009043438170804A0000904F5200804300009045508170804F000090525000804500009046508360803E0000804300008052000090393500903A3500903E3500904335008037000080460000902B4C0090324C0090374C8170802B00008032000080370000902B4900903249009037498170802B00008032000080370000902B4E0090324E0090374E817080390000803A0000803E00008043000090394700903A4700903E470090434700802B0000803200008037008170902B4200903242009037428170802B00008032000080370000902B4A0090324A0090374A817080390000803A0000803E00008043000090394B00903A4B00903E4B0090434B00802B0000803200008037008170902B470090324700903747817080390000803A0000803E00008043000090394C00903A4C00903E4C0090434C00802B0000803200008037008170902B4300903243009037438170802B00008032000080370000902B4A0090324A0090374A817080390000803A0000803E00008043000090394C00903A4C00903E4C0090434C00802B000080320000803700817080390000803A0000803E00008043000090394E00903A4E00903E4E0090434E8170902B4800903248009037488170802B00008032000080370000902B500090325000903750836080390000803A0000803E000080430000904A630090566300802B00008032000080370000901F4300902B438170804A00008056000090526900905E698170903743817080520000805E0000904A3E0090563E0080370000903A6500903E65009043658170804A000080560000904F5E00905B5E8170804F0000805B000090564681708056000090524300803A0000803E000080430000902B42817080520000904F4500802B0000903256009037568170804F0000801F0000802B00008032000080370000902950009035508170802900008035000090294E0090354E8170903E480090464800904A48817090354400903C448170803E000080460000804A0000903C4B0090464B0090484B008035000080350000803C00817090354600903C468170803C00008046000080480000903E540090465400904A540080350000803C00817080290000902952009035528170803E000080460000804A0000904A6400905664008029000080350000902749009033498170804A00008056000090526E00905E6E8170903744817080520000805E0000904A3F0090563F0080370000903A6000903F60009043608170804A000080560000904F5B00905B5B8170804F0000805B000090564381708056000090523C00803A0000803F000080430000902742817080520000904F470080270000902E57009033578170804F00008027000080330000802E000080330000902646009032468170802600008032000090264C0090324C8170903E42009042420090454200904A42817090394800903E488170803E00008042000080450000804A000090465A00904A5A0090525A008032000080390000803E00817090394300903E43817080460000804A00008052000090454900904A49009051490080390000803E0081708026000090265400903254817080450000804A000080510000904A5900905659008026000080320000901F4700902B478170804A00008056000090526300905E638170903745817080520000805E0000904A3F0090563F0080370000903A5E00903E5E0090435E8170804A000080560000904F5C00905B5C8170804F0000805B000090564481708056000090524300803A0000803E000080430000902B41817080520000904F4800802B0000903255009037558170804F0000801F0000802B000080320000803700009029540090355481708029000080350000902951009035518170903E440090464400904A44817090354200903C428170803E000080460000804A0000903C460090464600904846008035000080350000803C00817090354400903C448170803C00008046000080480000903E500090465000904A500080350000803C00817080290000902953009035538170803E000080460000804A0000904A610090566100802900008035000090274D0090334D8170804A00008056000090526900905E698170903748817080520000805E0000904A41009056410080370000903A5C00903F5C0090435C8170804A000080560000904F5A00905B5A8170804F0000805B000090564181708056000090524300803A0000803F000080430000902741817080520000904F450080270000902E57009033578170804F00008027000080330000802E0000803300009026470090324781708026000080320000902650009032508170903E3F0090423F0090453F00904A3F817090394500903E458170803E00008042000080450000804A000090465900904A5900905259008032000080390000803E00817090394600903E46817080460000804A00008052000090454A00904A4A0090514A0080390000803E0081708026000090265300903253817080450000804A00008051000090433A0090463A008026000080320000902B510090375100903E458170803E000090374D00903E4D817080370000803E00817080430000804600009043420090374700903E478170802B00008037000080370000803E000090374900903E4981708043000080370000803E0081709048400090374400903E44817080370000803E00817080480000904345009046450090374600903E46817080370000803E000090374E00903E4E817080370000803E00817080430000804600009043420090374400903E44817080370000803E000090374A00903E4A81708043000080370000803E008170904845009051410090374500903E45817080370000803E008170804800008051000090525F0090453F0090463F00904A3F0090374400903E4485508052000090524B85508045000080460000804A00008052000090524E009045450090464500904A4587408045000080460000804A000090433F8360805200008043000090524D0090465A00904A5A836080520000905655836080460000804A00008056000090564C00904A5B00904B5B00904F5B0080370000803E000090334900903A4985508056000090544C8550804A0000804B0000804F0000805400009054480090464E00904A4E00904B4E00904F4E874080460000804A0000804B0000804F0000903F398360803F00009043560090465683608054000090524C836080430000804600008052000090544C0090485B00904D5B0080330000803A000090354D00903C4D85508054000090524C855080480000804D00008052000090514A0090464C0090484C00904D4C8740805100008046000080480000804D0000904D4600904138836080410000904656009048568360804D0000904A438360804600008048000090414800904548009046480080350000803C0000903A4E8B2080410000804500008046000090414D0090454D0090464D8B20804A0000804100008045000080460000803A000090394D836090514183608051000090524E009045430090464300904A43008039000090375800903E5883608052000090524C81708052000090524B85508045000080460000804A00009045490090464900904A498740805200008045000080460000804A000090524B0090433D83608043000090465B00904A5B836080520000905652836080460000804A00008056000090564B00904A5900904B5900904F590080370000803E000090334A00903A4A85508056000090544E8550804A0000804B0000804F0000805400009054500090465000904A5000904B5000904F5087408054000080460000804A0000804B0000804F000090524900903F3B8360803F000090435900904659874080520000804300008046000090565600904A6400904D64009052640080330000803A000090355200903C5287408056000090544C8360804A0000804D00008052000080540000905451009045480090484800904A4800904D4887408045000080480000804A0000804D000090413A83608054000080410000905145009045530090485383608051000090524D8360804500008048000090465600904A560080350000803C0000903A59009041598B2080520000903E37836080460000804A0000803E0000903C408740803C0000803A00008041000090394D836090414183608041000090414B0080390000902B478170903745817080410000903E4600803700009035478170803E0000903E49008035000090374F8170803E0000802B00008037000090324881708032000090354C8170903E4200904545008035000090374B81708037000090394F8170803E000080450000903C460090464D0080390000903A4B8170803A000090374B8170803C000080460000903E5300904548008037000090354D8170803E000080450000903E4C0090454F00803500009037518170803E00008045000080370000903247817080320000903755817090414500803700009035488170803500009037548170804100009041470080370000902B44817090374C817080410000903E4900803700009035498170803E0000903E4A008035000090374F8170803E0000802B00008037000090324881708032000090354B8170903E4600904541008035000090374E81708037000090394F8170803E000080450000903C46009046500080390000903A4C8170803A000090374A8170803C000080460000903E520090454800803700009035498170803E000080450000903E4B0090454D008035000090374F8170803E000080450000803700009032458170803200009037538170904144008037000090354981708035000090374E81708041000090414A0080370000902B438170903742817080410000903E46008037000090354F8170803E0000903E4C00803500009037538170803E0000802B00008037000090324881708032000090354B8170903E440090413F0090453F00904A3F008035000090374C8170803700009039498170803E00008041000080450000804A0000903C410090414500904645009048450080390000903A4E8360803C0000804100008046000080480000803A008170903E48009041420090454200904A4200902B44009037448360803E00008041000080450000804A0000802B00008037008170903E42009041420090454200904A4200902B3F0090373F8B20803E00008041000080450000804A0000802B00008037008360903745811E903E52812190415A8121904A4100904D4100905241009056410090466A8740804A0000804D0000805200008056000090484400904D4400905144009054440080370000803E0000804100008046000090294300903543874080480000804D00008051000080540000904A4F00904F4F0090524F0090564F008029000080350000901B430090274383609027448170804A0000804F0000805200008056000090484700904B4700904F47009054470080270000902E56009033568360802E000080330000902741817080480000804B0000804F00008054000090484900904B4900904F49009054490080270000902E5700903357836080480000804B0000804F00008054000090484E00904B4E00904F4E0090544E00802E000080330000903F618170803F0000903A4C8170803A0000903749817080480000804B0000804F00008054000090464B00904B4B00904F4B0090524B008037000090334B817080330000902E488170802E0000902741817080460000804B0000804F0000805200009045480090484800904D48009051480080270000901B408360801B000080270000801B0000901D4D0090294D83608045000080480000804D00008051000090465100904A5100904D51009052510090294081708029000090304F0090354F8360803000008035000090293F817080460000804A0000804D00008052000090454F0090484F00904D4F0090514F00802900009030530090355383608030000080350000904161817080410000903C4681708045000080480000804D0000805100009045460090484600904D4600803C0000903947817080390000903546817080350000903045817080300000902946817080290000901D3E83608045000080480000804D0000904A5C00904F5C0090525C0090565C00801D000080290000801D0000901F4E00902B4E8360902B458170804A0000804F0000805200008056000090484900904D49009051490090544900802B00009032580090375883608032000080370000902B44817080480000804D0000805100008054000090485000904D50009051500090545000802B00009032570090375783608032000080370000904360817080430000903E45817080480000804D0000805100008054000090464900904A4900904F490090524900803E0000903A478170803A0000903747817080370000903247817080320000902B48817080460000804A0000804F00008052000090464D0090524D00802B0000901F438360804600008052000090454B00904A4B00904D4B0090514B00801F0000802B0000801F0000901A47009026478360902645817080450000804A0000804D00008051000090465000904A5000904D50009052500080260000902D56009032568360802D000080320000902640817080460000804A0000804D000080520000904D5B0090515B0090565B0090595B0080260000902D56009032568360802D000080320000903E628170803E000090394B8170804D000080510000805600008059000090453D00904A3D00904D3D0090513D008039000090354A817080350000903249817080320000902D498170802D0000902647817080450000804A0000804D00008051000090464E0090524E0080260000901A4283608046000080520000904F59009052590090575900905B5900801A000080260000801A0000901B4A0090274A83609027468170804F00008052000080570000805B0000904D4C0090524C0090564C0090594C0080270000902E54009033548360802E0000803300009027438170804D0000805200008056000080590000904A4800904D4800905248009056480080270000902E5A0090335A8360802E000080330000903F638170803F0000903A4C8170804A0000804D0000805200008056000090464400904A4400904D440090524400803A0000903748817080370000903349817080330000902E458170802E0000902747817080460000804A0000804D00008052000090464C0090524C0080270000901B44836080460000805200009046450090484500904D450090524500801B000080270000801B0000901D530090295383609029498170802900009030590090355981708046000080480000804D0000805200009045490090514981708030000080350000902948817080450000805100009043460090484600904D4600904F4600802900009030540090355483608030000080350000904163817080410000903C4581708043000080480000804D0000804F00009045500090515000803C00009039458170803900009035478170803500009030478170803000009029418170804500008051000090465A00904A5A00904F5A0090525A0080290000901D448360801D000080290000801D0000901F5000902B508360902B438170802B00009032570090375783608032000080370000902B438170802B00009032560090375683608032000080370000904366817080430000903E498170803E0000903A4A8170803A0000903749817080460000804A0000804F00008052000080370000903247817080320000902B43817090464300802B0000901F4483608046000090454400801F0000802B0000801F0000902653009032538170904144817080410000903E4600903244817080450000803E000090464F008032000090394E8170904141817080410000903E430080390000903244817080460000803E000090454C0080320000903951817090414981708041000080390000903E578170803E000090394A81708045000090413E0080390000903546817080350000903247817080320000902D478170802D0000902947817080410000903E5B00904A5B008029000090264A8360803E0000804A0000904A5F00904F5F0090525F0090565F008026000080320000802600009027408170802700009033548170804A0000804F0000805200008056000090484F0090544F0080330000902E488170804800008054000090484B00904B4B00904F4B0090544B00802E0000902741817080270000901B448170801B0000902755817080480000804B0000804F000080540000904849009054490080270000902E518170802E00009033528170804800008054000090485000904B5000904F50009054500080330000902741817080270000903358817080480000804B0000804F000080540000904647009052470080330000902E488170804600008052000090464900904B4900904F490090524900802E0000902748817080270000901B438170801B0000902753817080460000804B0000804F00008052000090464D0090524D0080270000902E558170802E0000903352817080460000805200009045450090484500904D4500905145008033000090294481708029000090355281708035000090304A81708045000080480000804D00008051000090464F0090524F0080300000902942817080290000901D408170801D0000902951817080460000805200009045440090484400904D4400905144008029000090305B81708030000090355481708035000090294581708029000090355481708045000080480000804D000080510000904142009045420090484200904D420080350000903049817080300000902944817080290000901D3E8170801D00009029578170804100008045000080480000804D0000903E4500904A45008029000090305381708030000090354F8170803E0000804A0000904A6200904F6200905262009056620080350000902B458170802B00009037578170804A0000804F0000805200008056000090484D0090544D00803700009032498170804800008054000090484800904D4800905148009054480080320000902B478170802B0000901F418170801F0000902B57817080480000804D0000805100008054000090484B0090544B00802B00009032588170803200009037508170804800008054000090484C00904D4C0090514C0090544C0080370000902B438170802B0000903752817080480000804D000080510000805400009046430090524300803700009032458170804600008052000090464B00904A4B00904F4B0090524B0080320000902B438170802B0000901F438170801F0000902B55817080460000804A0000804F00008052000090464C0090524C00802B00009032568170803200009037538170804600008052000090454800904A4800904D4800905148008037000090263F817080260000903259817080320000902D49817080450000804A0000804D00008051000090464D0090524D00802D0000902646817080260000901A438170801A000090265581708046000080520000904D5C0090515C0090565C0090595C0080260000902D558170802D000090325181708032000090263F8170802600009032528170804D000080510000805600008059000090454100904A4100904D41009051410080320000902D488170802D0000902645817080260000901A428170801A0000902652817080450000804A0000804D00008051000090464D0090524D0080260000902D518170802D000090325281708046000080520000904F5F0090525F0090575F00905B5F0080320000901B468170801B0000902755817080270000901B478170804F00008052000080570000805B0000904D4A0090524A0090564A0090594A00801B0000902756817080270000902E568170802E00009033508170804D0000805200008056000080590000904A40009056400080330000903A538170803A0000903F588170804A00008056000090464000904A4000904D400090524000803F000090435A817080430000903F498170803F0000903A418170803A0000903342817080330000902740836080460000804A0000804D00008052000090464700905247836080460000805200009046470090484700904D47009052470080270000901D500090295087408046000080480000804D00008052000090454900905149836080450000805100009043470090484700904D4700904F4700801D00008029000090396600903C660090416687408043000080480000804D0000804F000090454C0090514C836080390000803C000080410000902944009035448360804500008051000090465300904A5300904F53009052538360802900008035000090274B0090334B8170903E468170803E0000904352817080430000903E41009033448170803E000090435B817080430000903E408170803E00009043580080330000903349817080430000903E3F8170803E0000904A69008033000090375B00903A5B8170804A0000903E398170803E0000904356817080430000904655817080460000903E3E8170803E0000904357817080430000904655817080460000903E3C817080460000804A0000804F000080520000803E0000904A4700802700008033000080370000803A0000902B50009037508170804A0000903E388170803E000090414F81708041000090465500903742817080460000903E408170803E0000904151817080410000904657008037000090374B817080460000903E418170803E0000904A6B0080370000903A5B00903E5B8170804A0000903E3C8170803E0000904153817080410000904655817080460000903E408170803E000090414F817080410000904656817080460000903E3E8170803E000090486100802B000080370000803A0000803E000090294A0090354A817080480000903C388170803C000090415381708041000090465500903545817080460000903C3F8170803C0000904158817080410000904657008035000090354A817080460000903C3C8170803C0000904868008035000090395B00903C5B817080480000903C3C8170803C0000904152817080410000904657817080460000903C388170803C0000904155817080410000905240009046588360805200008046000090565600802900008035000080390000803C0000902B4E0090374E8170904D3D8170804D0000904A44817080560000804A0000905443009037418170904D3C8170804D0000904A43817080540000804A000090544A00803700009037498170904D3F8170804D0000904A4A0080370000903A5600903E568170804A0000904D50817080540000804D00009051458170904D468170804D0000904A458170804A0000904D56817080510000804D00009052518170904F478170804F0000904A4400802B000080370000803A0000803E0000902749009033498170804A0000904F568170804F0000904A448170804A0000904F51009033428170804F0000904A428170804A0000904F538170804F0000904A46008033000090334D8170804A0000904F588170804F00009056650080330000903A5E0090435E817080560000904A3C8170804A0000904F568170804F0000905253817080520000904A3E8170804A0000904F528170804F0000905255817080520000904A3F817080520000804A000090565E008027000080330000803A000080430000902B5000903750817080560000904A358170804A0000904D4B8170804D000090525500903747817080520000904A3C8170804A0000904D508170804D0000905256008037000090374B817080520000904A3C8170804A000090566D0080370000903E6100904661817080560000904A3A8170804A0000904D508170804D0000905253817080520000904A408170804A0000904D508170804D0000905259817080520000904A428170804A000090546400802B000080370000803E0000804600009029490090354981708054000090483F817080480000904D548170804D000090525A0090354081708052000090483F817080480000904D4F8170804D0000905259008035000090354B81708052000090483B8170804800009054670080350000903C610090456181708054000090483B817080480000904D568170804D000090525481708052000090483A817080480000904D578170804D000090525A81708052000090484081708048000090514C008029000080350000803C000080450000902B4E0090374E817080510000904A3B8170804A0000904642817080460000904A4F009037448170804A0000904646817080460000904A4E8170804A00009046460080370000903746817080460000904A588170804A00009052640080370000904363817080430000904557817080450000904652817080460000904A57817080520000804A0000904F55836090524600905E46836080520000805E000090544F0090604F00802B000080370000804F000090334581708033000090415F8170805400008060000090524A00905E4A0080410000903F49817080520000805E000090544D0090604D00803F0000904150817080410000903A438170803A000090435B8170805400008060000090524300905E430080430000904557817080450000904654817080520000805E0000905452009060520080460000904D598170804D0000904A478170805400008060000090524500905E4500804A0000904842817080520000805E0000905451009060510080480000904A528170804A0000903F368170803F00009046548170805400008060000090524900905E49008046000090454A81708045000090464F817080520000805E000090514B00905D4B008046000090374081708037000090415D817080510000805D000090514900905D490080410000903E49817080510000805D000090514A00905D4A00803E000090414E817080410000903A468170803A000090435D817080510000805D000090515000905D500080430000904553817080450000904651817080510000805D000090514B00905D4B0080460000904D5A8170804D0000904A46817080510000805D000090514D00905D4D00804A0000904849817080510000805D000090514B00905D4B0080480000904A538170804A000090433F81708043000090464F817080510000805D000090524C00905E4C008046000090454781708045000090464B817080520000805E000090545200906052008046000090354181708035000090415E8170805400008060000090524600905E460080410000903C42817080520000805E000090544F0090604F00803C0000904156817080410000903A498170803A000090415A8170805400008060000090524800905E480080410000904656817080460000904856817080520000805E0000905451009060510080480000904D5A8170804D00009048408170805400008060000090524500905E450080480000904649817080520000805E00009054550090605500804600009048548170804800009041418170804100009046528170805400008060000090524800905E480080460000904548817080450000904652817080520000805E000090514700905D47008046000090374381708037000090415F817080510000805D000090514B00905D4B0080410000903E42817080510000805D000090514900905D4900803E0000904153817080410000903A468170803A000090435E817080510000805D000090514B00905D4B0080430000904554817080450000904650817080510000805D000090514D00905D4D0080460000904D5C8170804D0000904A47817080510000805D000090514C00905D4C00804A0000904846817080510000805D000090514F00905D4F0080480000904A538170804A000090433F817080430000904652817080510000805D0000905250008046000090454981708045000090464B81708052000090485000904B5000904F50009054500080460000903342817080330000903F61817080480000804B0000804F0000805400009046460090524600803F000090374A00903A4A8170804600008052000090485000904B5000904F50009054500080370000803A0000903347817080330000902743817080270000903354817080480000804B0000804F00008054000090524B00905E4B008033000090375400903A54817080370000803A0000903F55817080520000805E00009054520090575200905B520090605200803F0000903343817080330000903F5C81708054000080570000805B00008060000090524B00905E4B00803F000090374800903A48817080520000805E000090544F0090574F00905B4F0090604F0080370000803A000090334981708033000090274181708027000090335781708054000080570000805B00008060000090464700905247008033000090375100903A51817080370000803A0000903F588170804600008052000090484F00904D4F0090544F00803F0000903742817080370000904360817080480000804D00008054000090464D0090524D0080430000903A4600903E468170804600008052000090484F00904D4F0090544F00803A0000803E0000903740817080370000902B3D8170802B0000903753817080480000804D00008054000090524A00905E4A0080370000903A5D00903E5D8170803A0000803E000090435E817080520000805E00009054520090595200906052008043000090374481708037000090435D817080540000805900008060000090524A00905E4A0080430000903A4700903E47817080520000805E0000905450009059500090605000803A0000803E0000903745817080370000902B428170802B00009037558170805400008059000080600000904648009052480080370000903A5600903E568170803A0000803E00009043588170804600008052000090485100904D5100905451008043000090354181708035000090415C817080480000804D00008054000090464700905247008041000090394600903C468170804600008052000090484F00904D4F0090544F0080390000803C0000903545817080350000902940817080290000903552817080480000804D00008054000090524A00905E4A008035000090395E00903C5E817080390000803C000090415D817080520000805E00009054520090595200906052008041000090354581708035000090415C81708041000090394500903C45817080540000805900008060000090524500905E450080390000803C0000903543817080350000902941817080290000903553817080520000805E00009054540090595400906054008035000090395D00903C5D817080390000803C000090415181708041000090374781708037000090435D817080540000805900008060000090524C00905E4C0080430000903A4700903E478170803A0000803E0000903745817080370000902B41874080520000805E0000904F7000905170009052700090567000905B7000802B000090375C00903A5C00903E5C8550804F0000805100008052000080560000805B0000904F6400905164009052640090566400905B640080370000803A0000803E000090375100903A5100903E518550804F0000805100008052000080560000805B0000904F5B0090515B0090525B0090565B00905B5B0080370000803A0000803E000090375000903A5000903E50836080370000803A0000803E0000901B4200902742827F903245813F8032000090374F81129027442D80370000903953814380390000903A4F813F803A0000903E518140803E000090435961802700009027495E80430000904550813F80450000904652814380460000904A530080270000902E550090335500903755811E804A0000903E3A8121803E0000904356812180430000904552811E8045000090465152802E000080330000803700009027424F80460000904A558121804A0000904F42811E804F0000905154812180510000905254812180520000905657008027000090274D811E80560000905B588121805B0000905D548121804F0000805100008052000080560000805B0000805D0000905E4400801B00008027000080270000901D5100902951813F805E000090604B814080600000905E45813F805E000090594181129029432D80590000905444814380540000905271813F8052000090545681408054000090524961802900009029485E80520000904D43813F804D0000904843814380480000905169008029000090355D0090395D00903C5D813F80510000904D478140804D0000904841813F8048000090464981128035000080390000803C00009029472D80460000904549814380450000904142813F80410000903C428140803C0000903A46618029000090294A5E803A0000903947813F8039008143904A4700904F47009052470090564700801D00008029000080290000901F5200902B52827F90323E813F8032000090374F8112902B482D80370000903951814380390000903A52813F803A0000903E518140803E000090435961802B0000902B4B5E80430000904553813F80450000904651814380460000904A5700802B00009032590090375900903A59811E804A0000903E388121803E0000904352812180430000904550811E80450000904651528032000080370000803A0000902B404F80460000904A548121804A0000904F42811E804F000090514B81218051000090524F81218052000090565600802B0000902B4B811E80560000905B578121805B0000905D508121804A0000804F00008052000080560000805D000090605400801F0000802B0000802B0000901A4A0090264A813F8060000090625081408062000090604C813F80600000905E4A81129026452D805E000090593E814380590000905469813F8054000090564F81408056000090544761802600009026485E80540000905247813F80520000904D478143804D000090546A00802600009035600090396000903C60813F80540000905249814080520000905149813F80510000904D4481128035000080390000803C00009026482D804D000090483C814380480000904642813F8046000090454581408045000090413F618026000090264D5E80410000903C42813F803C008143904F4600905146009052460090564600905B4600801A00008026000080260000901B4F0090274F827F903240813F8032000090375081129027462D80370000903952814380390000903A51813F803A0000903E528140803E000090435A618027000090274A5E80430000904554813F80450000904652814380460000904A580080270000902E560090335600903756811E804A0000903E3B8121803E0000904351812180430000904554811E8045000090464F52802E0000803300008037000090273D4F80460000904A558121804A0000904F41811E804F0000905150812180510000905251812180520000905656008027000090274B811E80560000905B588121805B0000905D578121804F0000805100008052000080560000805B0000805D0000905E4800801B00008027000080270000901D5200902952813F805E0000906050814080600000905E44813F805E000090594281129029472D8059000090544581438054000090526D813F8052000090545081408054000090524A618029000090294A5E80520000904D40813F804D000090483D81438048000090516F008029000090355E0090395E00903C5E813F80510000904D438140804D000090483C813F8048000090464581128035000080390000803C00009029472D8046000090454B814380450000904142813F80410000903C3E8140803C0000903A4B618029000090294C5E803A000090394B813F8039008143904A4500904F45009052450090564500801D00008029000080290000901F4D00902B4D827F903240813F8032000090374F8112902B402D80370000903951814380390000903A4F813F803A0000903E5B8140803E000090435761802B0000902B475E8043000090454E813F8045000090464F814380460000904A5400802B000090325A0090375A00903A5A811E804A0000903E398121803E0000904355812180430000904551811E8045000090464F528032000080370000803A0000902B424F80460000904A568121804A0000904F3D811E804F000090514B81218051000090525281218052000090565700802B0000902B49811E80560000905B5C8121805B0000905D508121804A0000804F00008052000080560000805D000090605300801F0000802B0000802B0000901A4C0090264C813F8060000090625181408062000090604A813F80600000905E4581129026482D805E000090594281438059000090546C813F8054000090565381408056000090544C618026000090264C5E80540000905249813F80520000904D438143804D000090546E008026000090355C0090395C00903C5C813F80540000905248814080520000905149813F80510000904D4881128035000080390000803C00009026492D804D0000904840814380480000904645813F8046000090454A814080450000904141618026000090264B5E80410000903C48813F803C00814390564500801A0000802600008026000090274F8170904F400080270000902E538170804F0000904A4200802E0000903552817080560000804A000090524100803500009037518170904F4700803700009033478170804F0000904A400080330000903752817080520000804A0000904F430080370000903A528170904A4100803A0000903E548170804F0000804A000090565500803E00009027428170904F420080270000902E518170804F0000904A3F00802E0000903558817080560000804A0000905245008035000090374D8170904F4C008037000090334B8170804F0000904A440080330000903751817080520000804A0000904F440080370000903A4E8170904A4500803A0000903E538170804F0000804A000090545700803E00009029428170904D4500802900009030528170804D000090484000803000009037548170805400008048000090514800803700009039508170904D4A00803900009035498170804D0000904843008035000090394E81708051000080480000904D450080390000903A51817090484400803A0000903C538170804D00008048000090545500803C00009029458170904D4200802900009030568170804D000090484000803000009037548170805400008048000090514800803700009039538170904D48008039000090354A8170804D000090483F008035000090394E81708051000080480000904D410080390000903A4F817090484800803A0000903C508170804D000080480000905E5600803C0000902B41817090564200802B000090325281708056000090524200803200009037538170805E000080520000905E4A008037000090394C817090563E00803900009037498170805600009052410080370000903A508170805E000080520000905E4B00803A0000903C4A817090523900803C0000903E4C8170805E000080520000905E4500803E0000902B42817090563C00802B000090325381708056000090524000803200009037518170805E000080520000905D4C008037000090394C8170905640008039000090374D8170805600009052420080370000903A538170805D00008052000090594800803A0000903C56817090524000803C0000903E518170805900008052000090565B00803E00009026468170904D400080260000902D4C8170804D0000904A3F00802D0000903255817080560000804A0000905651008032000090354D8170904D44008035000090324D8170804D0000904A480080320000903550817080560000804A000090564F008035000090394F8170904A3B0080390000903E57817080560000804A000090564C00803E00009026488170904D420080260000902D558170804D0000904A4200802D000090324C817080560000804A000090544800803200009035528170904D3F00803500009032488170804D0000904A450080320000903954817080540000804A00009056510080390000903E578360805600009052380090563800803E0000901B50009027505E805200008056001A905E385E805E001A905238009056385E805200008056001A905E385E805E001A9052380090563800902745009033455E805200008056001A905E385E805E001A905238009056385E805200008056001A905E385E805E001A90523800905638008027000080330000902747009033475E805200008056001A905E385E805E001A905238009056385E805200008056001A905E385E805E001A9052380090563800802700008033000090274F0090334F5E805200008056001A905E385E805E001A905238009056385E805200008056001A905E385E805E001A905E4C00802700008033000090274D0090334D78805E00009057437880570000905646788056000090464178804600009052607880520000904B4178804B0000904A4A78804A0000904644788046000090464E7880460000903F3F78803F0000903E4278803E0000903A4B78803A0000903A4778803A0000903346788033000090324C7880320000902E4B78802E00009052600090566000801B0000802700008027000080330000901D4B0090294B5E805200008056001A905E605E805E001A905260009056605E805200008056001A905E605E805E001A9052600090566000902947009035475E805200008056001A905E605E805E001A905260009056605E805200008056001A905E605E805E001A9052600090566000802900008035000090294C0090354C5E805200008056001A905E605E805E001A905260009056605E805200008056001A905E605E805E001A9052600090566000802900008035000090294B0090354B5E805200008056001A905E605E805E001A905260009056605E805200008056001A905E605E805E001A905E4E0080290000803500009029480090354878805E000090573D788057000090564B788056000090524378805200009052627880520000904B4578804B0000904A4778804A0000904649788046000090464C7880460000903F3D78803F0000903E4A78803E0000903A4378803A0000903A4978803A000090334378803300009032457880320000902E4578802E00009052600090566000801D0000802900008029000080350000901F4D00902B4D5E805200008056001A905E605E805E001A905260009056605E805200008056001A905E605E805E001A9052600090566000902B40009037405E805200008056001A905E605E805E001A905260009056605E805200008056001A905E605E805E001A9052600090566000802B000080370000902B4C0090374C5E805200008056001A905E605E805E001A905260009056605E805200008056001A905E605E805E001A9052600090566000802B000080370000902B4A0090374A5E805200008056001A905E605E805E001A905260009056605E805200008056001A905E605E805E001A905E5000802B000080370000902B4B0090374B78805E000090573E7880570000905643788056000090524478805200009052617880520000904B3F78804B0000904A4678804A000090464478804600009046517880460000903F3E78803F0000903E4B78803E0000903A4878803A0000903A4B78803A0000903346788033000090324A7880320000902E4D78802E00009054600090596000801F0000802B0000802B000080370000901A42009026425E805400008059001A9060605E8060001A905460009059605E805400008059001A9060605E8060001A9054600090596000902642009032425E805400008059001A9060605E8060001A905460009059605E805400008059001A9060605E8060001A9054600090596000802600008032000090264A0090324A5E805400008059001A9060605E8060001A905460009059605E805400008059001A9060605E8060001A90546000905960008026000080320000902650009032505E805400008059001A9060605E8060001A905460009059605E805400008059001A9060605E8060001A90605000802600008032000090264C0090324C7880600000905E4C78805E00009059457880590000905441788054000090545F78805400009052487880520000904D4378804D000090483D7880480000904847788048000090464A788046000090413B7880410000903C4078803C0000903C460090414078803C0000903A4B78803A0000903549788035000090304578804100008030000090416500801A0000802600008026000080320000902B508170903742817080410000903E4500803700009035498170803E0000903E4E008035000090374F8170803E0000802B00008037000090324681708032000090354F8170903E4300904545008035000090374D81708037000090394F8170803E000080450000903C480090464E0080390000903A4E8170803A00009037498170803C000080460000903E500090454400803700009035478170803E000080450000903E510090454B00803500009037498170803E0000804500008037000090324C8170803200009037528170904141008037000090354D81708035000090374B81708041000090414A00803700009027468170903744817080410000903E4300803700009035488170803E0000903E4B008035000090374B8170803E000080270000803700009032468170803200009035508170903E4600904543008035000090375181708037000090394F8170803E000080450000903C45009046500080390000903A4C8170803A00009037458170803C000080460000903E4C0090454B008037000090354A8170803E000080450000903E490090454B00803500009037518170803E0000804500008037000090324881708032000090374C8170904149008037000090354E81708035000090375481708041000090414B00803700009029428170903744817080410000903E46008037000090354B8170803E0000903E4E008035000090374D8170803E0000802900008037000090324781708032000090354D8170903E4000904540008035000090375081708037000090394D8170803E000080450000903C480090464E0080390000903A508170803A000090374C8170803C000080460000903E5100904547008037000090354E8170803E000080450000903E4D00904551008035000090374A8170803E000080450000803700009032468170803200009037528170904145008037000090354E81708035000090374C81708041000090414C0080370000902B428170903746817080410000903E46008037000090354C8170803E0000903E4D00803500009037538170803E0000802B00008037000090324B8170803200009035508170903E4700904547008035000090374B81708037000090394E8170803E000080450000903C48009046500080390000903A508170803A00009037488170803C000080460000903E4C00904549008037000090354B8170803E000080450000903E4B0090454C00803500009037528170803E0000804500008037000090324B81708032000090374D8170904144008037000090355081708035000090374D817080410000903E4A0090414A00904A440080370000902B438170804A0000904542009037418170803E00008041000080450000903E430090464E0080370000903A508170803E000080460000903E4D0090414100803A0000903A4B8170803E000080410000802B0000803A000090374B8170803700009039518170903E4600904A480080390000903A518170804A000090454000803A000090374B8170803E000080450000903C4B0090464C008037000090394D81708046000090414400803900009037458170803C000080410000903E520080370000903A518170803E0000903E4D00803A0000903A478170803E0000904A4200803A00009037468170804A000090454300803700009039548170804500009041420090464F0080390000903E548170803E000090374781708041000080460000903E4A0090414A00904A5300803700009027438170804A0000904546009033478170803E00008041000080450000903E4A0090464F0080330000903A518170803E000080460000903E4B0090413C00803A0000903A528170803E00008041000080270000803A00009037438170803700009039508170903E4600904A430080390000903A508170804A000090453E00803A00009037468170803E000080450000903C4B0090464F008037000090395281708046000090414200803900009037488170803C000080410000903E500080370000903A548170803E0000903E5000803A0000903A488170803E0000904A4500803A00009037468170804A000090454000803700009039508170804500009041460090464B0080390000903E558170803E000090374881708041000080460000904A5C008037000090294300903E43009041438170804A00009045430090354981708045000090465100803E00008041000080350000903A5300903E4481708046000090413F00803A0000803E0000903A4A00903E4F81708041000080290000803A0000803E00009037498170803700009039508170904A440080390000903A4C00903E44817090453900803A00009037498170804A00008045000090464B0090484700803E00008037000090394B00903C4181708046000090414181708039000090374A817080480000904A5300803C0000903A4F00903E55836080370000803A0000902B428170804A0000903E4C0090414C0090464C00904A4C00803E000090374583608041008360803E00008041000080460000804A0000904B63009057638360804B000080570000904A43009056438360802B000080370000904360811E90456D812190466E8121804A0000805600009056490090624900904A7987408056000080620000905447009060478740805400008060000090625000804300008045000080460000804A000090334900903A4900903F498170905B3F8170805B00009057418170806200008057000090604B00903F418170905B428170805B00009057448170806000008057000090605100803F0000903F4B817090573E8170806000008057000090604C00803F000090465D00904B5D00904F5D8170905B448170805B000090574481708060000080570000905E4B8170905B468170805B000090573F8170805E000080570000905E4A817090573C8170805E000080570000905D470080330000803A0000803F000080460000804B0000804F000090354F00903C4F0090414F81709059438170805900009054408170805D000080540000905E4D0090414481709059448170805900009054438170805E000080540000905D49008041000090414F817090543F81708054000090544C008041000090486100904D61009051618170805400009054488170805D000080540000905946817090544281708054000090544681708054000090544F817080540000905958817080590000905D57817080590000805D000090625B0080350000803C00008041000080480000804D00008051000090374F00903E4F0090434F8170905B3E8170805B000090563F8170806200008056000090604A009043458170905B4A8170805B0000905642817080600000805600009060500080430000904347817090563F8170806000008056000090604E0080430000904A6600904F66009052668170905B438170805B000090564181708060000080560000905E498170905B4B8170805B00009056418170805E000080560000905E4E81709056438170805E000080560000905D490080370000803E000080430000804A0000804F00008052000090323E0090393E00903E3E81709059488170805900009056478170805D000080560000905E4C00903E4681709059458170805900009056448170805E00008056000090655B00803E0000903E49817090563A81708056000090564900803E0000904A6200904D620090516281708056000090564D81708065000080560000905D40817090564181708056000090564881708056000090564E817080560000905952817080590000905E598170805D0000805E000090675E008032000080390000803E0000804A0000804D00008051000090334F00903A4F00903F4F8170905E3E8170805E0000905B40817080670000805B000090654900903F438170905E428170805E0000905B46817080650000805B000090624A00803F0000903F49817090573D81708057000090574800803F000090466200904B6200904F6281708057000090574981708062000080570000905E48817090574381708057000090574B81708057000090574D8170805E000080570000905E4981709057408170805E000080570000905E490080330000803A0000803F000080460000804B0000804F000090354F00903C4F0090414F817090594081708059000090543A81708054000090544A009041438170805E000080540000905D45817090543C8170805D000080540000905B48008041000090414B8170905441817080540000905448008041000090486500904D650090516581708054000090544C8170805B000080540000905D4F817090543A81708054000090544A81708054000090544C8170805D000080540000905E4C0090525C0090565C836080350000803C00008041000080480000804D00008051000090373900903E398170904343817080430000904652817080460000903E3D8170803E0000904356817080430000904651817080460000903E3C8170803E0000904357817080430000904A548170804A0000903E3A8170803E00009043558170804300009046548170805E0000805200008056000080460000903E3B8170803E000090435481709052420080430000904652817080460000903E3E817080520000904A4A00904D4A0090514A0080370000803E0000803E0000903245009039458170903E478170803E00009041578170804A0000804D0000805100009052510080410000903944817080390000903E568170803E000090415581708052000090514C008041000090394C817080390000903E538170803E0000904A618170804A0000904544817080510000904D440080450000904140817080410000903E468170803E00009039458170803900009035488170804D0000904A4400803500009032488360804A0000904B5A00904F5A0090565A0080320000803900008032000090334E00903A4E817080330000803A0000903F548170804B0000804F00008056000090544C00803F0000903F4E817080540000904B4C00904F4C0090544C00803F0000903F4D8170803F000090435A0090465A81708043000080460000903F408170804B0000804F00008054000090544900803F0000903F498170803F0000903F4B817080540000904B4E00904F4E0090544E00803F000090334E00903A4E817080330000803A0000903F578170804B0000804F00008054000090524B00803F0000903F51817080520000904B4C00904F4C0090524C00803F0000903F4F8170803F000090435E0090465E81708043000080460000903F3E8170804B0000804F00008052000090524D00803F0000903F4B8170803F0000903F4881708052000090484900904D490090514900803F000090354800903C48817080350000803C0000904156817080410000904149817080480000804D00008051000090524E008041000090414A81708041000090455A0090485A8170804500008048000090413E81708052000090484600904D4600905146008041000090414A81708041000090414981708041000090354300903C43817080350000803C0000904150817080480000804D000080510000904D46008041000090414E81708041000090414E81708041000090455C0090485C817080450000804800009041438170804D0000904A43008041000090414B81708041000090414A8170804A0000904D5E0090525E0090565E008041000090374400903E44817080370000803E00009043598170804D000080520000805600009054490080430000904351817080540000904D4E0090524E0090544E008043000090434F81708043000090465B00904A5B817080460000804A000090433F8170804D0000805200008054000090544D008043000090434E81708043000090434C817080540000904D4C0090524C0090544C008043000090374100903E41817080370000803E00009043588170804D00008052000080540000905244008043000090434C817080520000904D5000905250008043000090435181708043000090465500904A55817080460000804A00009043458170804D00008052000090524C008043000090434981708043000090434F817080520000904A4800904D480090514800804300009032440090394481708032000080390000903E518170803E0000903E4F8170804A0000804D00008051000090525500803E0000903E4B8170803E000090415C0090455C81708041000080450000903E3E81708052000090515E0090565E0090595E00803E0000903E478170803E0000903E498170803E00009032490090394981708032000080390000903E58817080510000805600008059000090513D00803E0000903E4B8170803E0000903E498170803E000090415A0090455A81708041000080450000903E4181708051000090524C00803E0000903E478170803E0000903E4C81708052000090525B0090575B00905B5B00803E000090334C00903A4C817080330000803A0000903F588170803F0000903F5081708052000080570000805B000090594800803F0000903F498170803F000090435C0090465C81708043000080460000903F438170805900009052430090564300803F0000903F4B8170803F0000903F488170803F000090334300903A43817080330000803A0000903F5781708052000080560000904F440090524400803F0000903F4F8170803F0000903F4D8170803F000090435E0090465E81708043000080460000903F3F8170804F00008052000090524600803F0000903F4D8170803F0000903F4D81708052000090484E00904D4E0090524E00803F0000903547817080350000903C598170803C0000904157817080410000904351817080480000804D000080520000905149008043000090454D817080450000904855817080510000904F470080480000904D5D8170804D00009048488170804800009045438170804500009043498170804F000090514F0080430000904147817080410000903C418170803C000090354583608051000090465000904A5000904F5000905250836080350000902748009033488170903E488170803E000090435581708043000090465500903348817080460000903E408170803E0000904356817080430000904655008033000090334A817080460000903E408170803E0000904A6B008033000090375200903A528170804A0000903E3B8170803E0000904353817080430000904655817080460000903E3D8170803E0000904351817080430000904654817080460000903E3C817080460000804A0000804F000080520000803E000090484200802700008033000080370000803A000090294900903549817080480000903C378170803C000090415481708041000090465B00903545817080460000903C378170803C0000904153817080410000904659008035000090354D817080460000903C3F8170803C0000904866008035000090395900903C59817080480000903C3B8170803C000090414F817080410000904659817080460000903C418170803C0000904156817080410000904655009052488360804600008052000090546600802900008035000080390000803C0000902B4E0090374E8170904D3E8170804D0000904A42817080540000804A000090524A009037418170904D438170804D0000904A42817080520000804A0000905451008037000090374E8170904D478170804D0000904A430080370000903A5E00903E5E8170804A0000904D50817080540000804D000090524A8170904D408170804D0000904A458170804A0000904D52817080520000804D00009054518170904D468170804D0000904A4300802B000080370000803A0000803E0000902645009032458170804A0000904D51817080540000804D00009056528170904D36009032438170804D0000904A3F8170804A0000904D4F8170804D0000904A4A008032000090324D8170804A0000904D518170804D0000904A4A00803200009035620090396200903E628170804A0000904D518170804D0000904A448170804A0000904D528170804D0000904A448170804A0000904D51817080560000804D000090524483608052000090525C0090565C00905B5C0080260000803200008035000080390000803E0000902753009033538170904F458170804F0000904F4C81708052000080560000805B0000804F000090524D0090564D0090594D009033458170904D458170804D0000904D4B8170805200008056000080590000804D0000904D440090524400905644008033000090334C8170904A438170804A0000904A4A0080330000903A6000903F60009043608170804A0000904A538170804D00008052000080560000804A0000904A4500904D450090524500803A0000803F000080430000903F47817090464400803F0000903A4881708046000090464A00803A000090374581708046000090464A008037000090334C8170804A0000804D00008052000080460000904A4900904D49009052490080330000902E4F8170802E00009027448170804A0000804D00008052000090525F0090565F00905B5F0080270000803300008027000090294B0090354B8170904F468170804F0000904F4D81708052000080560000805B0000804F00009052480090564800905948009035438170904D458170804D0000904D498170805200008056000080590000804D0000904D43009052430090564300803500009035488170904A438170804A0000904A4A0080350000903C6200904162009045628170804A0000904A4D8170804D00008052000080560000804A0000904A4500904D450090524500803C0000804100008045000090414981709046430080410000903C4181708046000090464700803C000090394B81708046000090464C00803900009035458170804A0000804D00008052000080460000904A4D00904D4D0090524D00803500009030448170803000009029448170804A0000804D00008052000090525F0090565F00905B5F00802900008035000080290000902B4E0090374E8170904F458170804F0000904F4D81708052000080560000805B0000804F000090524A0090564A0090594A009037498170904D468170804D0000904D4C8170805200008056000080590000804D0000904D42009052420090564200803700009037468170904A488170804A0000904A4A0080370000903E6200904362009046628170804A0000904A4D8170804D00008052000080560000804A0000904A4100904D410090524100803E0000804300008046000090434A81709046430080430000903E4481708046000090464B00803E0000903A4581708046000090464D00803A00009037488170804A0000804D00008052000080460000904A4F00904D4F0090524F0080370000903249817080320000902B428170804A0000804D00008052000090525E0090565E00905B5E00802B000080370000802B0000902646009032468170904F468170804F0000904F4B81708052000080560000805B0000804F00009052480090564800905948009032438170904D448170804D0000904D448170805200008056000080590000804D0000904D470090524700905647008032000090324D8170904A428170804A0000904A5300803200009035610090396100903E618170804A0000904A4F8170804D00008052000080560000804A0000904A4100904D4100905241008035000080390000803E0000903E4D8170803E0000903947817080390000903246817080320000902D468170804A0000804D000080520000903E3E00904A3E00802D00009026478360803E0000804A0000904A5800904F58009052580090565800802600008032000080260000901B42009027428360903A4800903F48009043488170804A0000804F0000805200008056000090484700904B4700904F47009054478170803A0000803F00008043000090274000903340836080480000804B0000804F00008054000090484900904B4900904F4900905449008027000080330000903A6200903F6200904362836080480000804B0000804F00008054000090484B00904B4B00904F4B0090544B00803A0000803F0000804300009027470090334783608027000080330000903A6200903F6200904362817080480000804B0000804F00008054000090464500904B4500904F45009052458170803A0000803F00008043000090274300903343836080460000804B0000804F00008052000090464F00904B4F00904F4F0090524F008027000080330000903A6200903F6200904362836080460000804B0000804F00008052000090454B0090484B00904D4B0090514B00801B000080270000803A0000803F000080430000901D4C0090294C836090394500903C450090414581708045000080480000804D00008051000090464F0090524F817080390000803C00008041000090293E0090353E836080460000805200009045470090484700904D470090514700802900008035000090395E00903C5E0090415E836080390000803C0000804100009029470090354783608045000080480000804D0000805100009045430090484300904D4300802900008035000090395F00903C5F0090415F836080390000803C0000804100009029410090354183608045000080480000804D0000904A4000802900008035000090395F00903C5F0090415F8360804A0000904A6300904F63009052630090566300801D00008029000080390000803C000080410000901F5000902B508360903A4500903E45009043458170804A0000804F0000805200008056000090484D00904D4D0090514D0090544D8170803A0000803E000080430000902B3F0090373F836080480000804D0000805100008054000090484A00904D4A0090514A0090544A00802B000080370000903A5E00903E5E0090435E836080480000804D0000805100008054000090485000904D50009051500090545000803A0000803E000080430000902B49009037498360802B000080370000903A5E00903E5E0090435E817080480000804D0000805100008054000090464600904A4600904F46009052468170803A0000803E000080430000902B4500903745836080460000804A0000804F00008052000090464800904A4800904F480090524800802B000080370000903A6000903E6000904360836080460000804A0000804F00008052000090454800904A4800904D480090514800801F0000802B0000803A0000803E000080430000901A4A0090264A836090394400903E4400904144817080450000804A0000804D00008051000090465200905252817080390000803E0000804100009026440090324483608046000080520000904D5C0090515C0090565C0090595C00802600008032000090395E00903E5E0090415E836080390000803E000080410000902642009032428360804D000080510000805600008059000090453900904A3900904D390090513900802600008032000090396000903E6000904160836080390000803E00008041000090264800903248836080450000804A0000804D0000805100009046490090524900802600008032000090396000903E600090416083608046000080520000904F5C0090525C0090575C00905B5C00801A00008026000080390000803E000080410000901B5000902750836090274300902E43009033438170804F00008052000080570000805B0000904D4A0090524A0090564A0090594A817080270000802E00008033000090274E00902E4E0090334E8360804D0000805200008056000080590000904A47009056470080270000802E00008033000090274C00902E4C0090334C8360804A00008056000090464200904A4200904D42009052420080270000802E000080330000903A6500903F65009043658740803A0000803F00008043000090274500903345836080460000804A0000804D00008052000090464C0090524C8360804600008052000090464C0090484C00904D4C0090524C00801B0000802700008027000080330000901D530090295387408046000080480000804D00008052000090454400905144836080450000805100009043460090484600904D4600904F460090394600903C460090414687408043000080480000804D0000804F000090455100905151836080390000803C000080410000902940009035408360804500008051000090465100904A5100904F51009052518360801D000080290000802900008035000090275300903353836090434583608043000090464F836080460000904A5800903A4700903E478360804A000090433E836080430000904652836080460000904A5100803A0000803E0000903A4600903E468360804A000090433E836080460000804A0000804F0000805200008043000090483C008027000080330000803A0000803E0000902B510090375183608048000090433D83608043000090465083608046000090484F00903A4400903E4483608048000090434483608043000090465283608046000090485300803A0000803E0000903A4E00903E4E83608048000090434383608043000090485300802B000080370000803A0000803E0000902945009035458360804800009041408360804100009045548360804500009046500090394700903C478360804600009041448360804100009045558360804500009046500080390000803C000090394600903C4683608046000090413E83608041000090485400802900008035000080390000803C0000902B4D0090374D83608048000090434483608043000090454F83608045000090485400903A4800903E4883608048000090433E83608043000090464F836080460000904A5700803A0000803E0000903A4C00903E4C8360804A0000905246836080520000904A4E00904D4E0090544E00802B000080370000803A0000803E0000903342836080330000903A518360804A0000804D00008054000090524900803A000090435A83608043000090334683608052000090514D0080330000903A4E836090434300803A000090435C8360804300009046530080430000903349836080460000904A560080330000903A56836080510000804A000090413B00803A00009037488360804100009048580080370000903E5A836080480000904A5200803E000090465C8360804A000090413B00804600009037498360804100009048580080370000903E57836080480000904A5400803E000090465F8360804A000090414000804600009037418360804100009052480080370000903E5F83608052000090485000904D500090545000803E0000903546836080350000903C56836080480000804D00008054000090524900803C000090455D8360804500009035458360805200009051490080350000903C5C836090454600803C000090456283608045000090465300804500009035488360804600009048530080350000903C598360805100008048000090413E00803C00009037488360804100009045500080370000903E5683608045000090464C00803E000090435983608046000090414400804300009037418360804100009045540080370000903E5883608045000090465300803E000090435A8360804600009041420080430000903742836080410000904A430080370000903E5A8360804A000090464C00904A4C00803E0000903343836080330000903A50836080460000804A0000904A4900803A000090435F8360804A0000904A4D0080430000903349836080330000903A518360804A000090566400803A000090436383608056000090564C008043000090333F836080330000903A52836090414400803A000090374883608041000090485C0080370000903E58836080480000904A5000803E000090465B8360804A000090413A008046000090374383608056000080